# xmcd
#
# Track frame offsets: 
#        150
#        13852
#        30601
#        38999
#        49146
#        59935
#        72252
#        82067
#        95711
#        106446
#        117546
#        129840
#
# Disc length: 1920 seconds
#
# Revision: 0
# Processed by: cddbd v1.5.2PL0 Copyright (c) Steve Scherf et al.
# Submitted via: ExactAudioCopy v0.99pb4
#
DISCID=b1077e0c
DTITLE=Alpencasanovas - Alpenchaos
DYEAR=1900
DGENRE=
TTITLE0=Alpencasanovas
TTITLE1=Immer nur du
TTITLE2=Michi spann die Rösser ein
TTITLE3=Alpenchaos
TTITLE4=Tränen in den Augen
TTITLE5=Regentropfen (Listen to the rhytm of the falling rain)
TTITLE6=Haferlschuah (Blue Suede Shoes)
TTITLE7=Bayrisch Rasta Mann
TTITLE8=Am 10. ist der 30.
TTITLE9=Roosie (I bring de Luft nit her)
TTITLE10=Tausend Frauen sehnen sich nach mir
TTITLE11=Almrausch-Walzer
EXTD=
EXTT0=
EXTT1=
EXTT2=
EXTT3=
EXTT4=
EXTT5=
EXTT6=
EXTT7=
EXTT8=
EXTT9=
EXTT10=
EXTT11=
PLAYORDER=
